<?xml version="1.0" encoding="UTF-8"?>
<svg id="Layer_8" data-name="Layer 8" xmlns="http://www.w3.org/2000/svg" viewBox="0 0 1080 537.6">
  <defs>
    <style>
      .cls-1 {
        fill: none;
        stroke: #98afa1;
        stroke-miterlimit: 10;
        stroke-width: 24px;
      }
    </style>
  </defs>
  <path d="M294.47,223.81v-22.74h27.56v-89.42h-27.56v-22.74h80.17v22.74h-27.56v89.42h27.56v22.74h-80.17Z"/>
  <path d="M422.25,223.81V88.91h66.68c8.35,0,15.93,1.86,22.74,5.59,6.81,3.73,12.17,8.8,16.09,15.23,3.92,6.43,5.88,13.68,5.88,21.78s-2.06,15.23-6.17,21.78c-4.12,6.55-9.64,11.76-16.58,15.61-6.94,3.85-14.65,5.78-23.13,5.78h-41.05v49.15h-24.48ZM446.72,152.89h40.28c3.98,0,7.54-.93,10.69-2.79,3.15-1.86,5.65-4.37,7.52-7.52,1.86-3.15,2.8-6.65,2.8-10.5s-1.03-7.52-3.08-10.6c-2.06-3.08-4.89-5.52-8.48-7.32-3.6-1.8-7.71-2.7-12.33-2.7h-37.39v41.44ZM510.13,223.81l-38.93-60.9,26.21-4.82,42.79,65.91-30.07-.19Z"/>
  <path d="M580.86,223.81V88.91h99.06v22.74h-74.39v89.42h75.16v22.74h-99.83ZM593.19,166v-22.36h76.9v22.36h-76.9Z"/>
  <path d="M725.21,223.81V88.91h23.32l89.04,105.42-3.47.77c-.64-3.85-1.15-7.8-1.54-11.85-.39-4.05-.74-8.19-1.06-12.43-.32-4.24-.58-8.61-.77-13.11-.19-4.5-.32-9.09-.39-13.78-.06-4.69-.1-9.54-.1-14.55v-40.47h24.86v134.91h-23.71l-89.42-103.88,4.24-1.35c.39,5.27.77,10.02,1.15,14.26.39,4.24.77,8.13,1.16,11.66.39,3.54.68,6.81.87,9.83.19,3.02.35,5.97.48,8.86.13,2.89.19,5.69.19,8.38v52.23h-24.86Z"/>
  <path d="M904.25,223.81v-22.74h75.16s0-89.42,0-89.42h-74.39v-22.74h99.06v134.91h-99.83ZM914.85,166v-22.36h76.9v22.36h-76.9Z"/>
  <path d="M71.3,446.77v-134.91h23.71l53.96,78.44-12.91-.19,54.54-78.25h22.93v134.91h-24.86v-51.46c0-11.18.29-21.42.87-30.74.58-9.31,1.57-18.66,2.99-28.04l2.89,8.67-47.03,64.95h-12.72l-46.06-64.76,2.7-8.86c1.41,9.12,2.41,18.28,2.99,27.46.58,9.19.87,19.63.87,31.32v51.46h-24.86Z"/>
  <path d="M262.86,446.77v-134.91h99.06v22.74h-74.39v89.42h75.16v22.74h-99.83ZM275.2,388.95v-22.36h76.9v22.36h-76.9Z"/>
  <path d="M407.21,446.77v-134.91h66.68c8.35,0,15.93,1.86,22.74,5.59,6.81,3.73,12.17,8.8,16.09,15.23,3.92,6.43,5.88,13.68,5.88,21.78s-2.06,15.23-6.17,21.78c-4.11,6.55-9.64,11.76-16.58,15.61-6.94,3.85-14.65,5.78-23.13,5.78h-41.05v49.15h-24.48ZM431.69,375.84h40.28c3.98,0,7.55-.93,10.7-2.79,3.14-1.86,5.65-4.37,7.52-7.52,1.86-3.15,2.79-6.65,2.79-10.5s-1.03-7.52-3.08-10.6c-2.06-3.08-4.88-5.52-8.48-7.32-3.6-1.8-7.71-2.7-12.34-2.7h-37.39v41.44ZM495.09,446.77l-38.93-60.9,26.21-4.82,42.79,65.91-30.07-.19Z"/>
  <path d="M564.28,446.77v-22.74h27.56v-89.42h-27.56v-22.74h80.17v22.74h-27.56v89.42h27.56v22.74h-80.17Z"/>
  <path d="M692.06,446.77v-134.91h23.32l89.04,105.42-3.47.77c-.64-3.85-1.15-7.8-1.54-11.85-.39-4.05-.74-8.19-1.06-12.43-.32-4.24-.58-8.61-.77-13.11-.19-4.5-.32-9.09-.39-13.78-.06-4.69-.1-9.54-.1-14.55v-40.47h24.86v134.91h-23.71l-89.42-103.88,4.24-1.35c.39,5.27.77,10.02,1.15,14.26.39,4.24.77,8.13,1.16,11.66.39,3.54.68,6.81.87,9.83.19,3.02.35,5.97.48,8.86.13,2.89.19,5.69.19,8.38v52.23h-24.86Z"/>
  <path d="M935.08,448.69c-10.67,0-20.46-1.73-29.39-5.2-8.93-3.47-16.74-8.35-23.42-14.65-6.68-6.29-11.82-13.68-15.42-22.16-3.6-8.48-5.4-17.66-5.4-27.56s1.8-19.08,5.4-27.56c3.6-8.48,8.74-15.87,15.42-22.16,6.68-6.29,14.48-11.18,23.42-14.65,8.93-3.47,18.72-5.2,29.39-5.2s20.49,1.74,29.49,5.2c8.99,3.47,16.77,8.38,23.32,14.74,6.55,6.36,11.66,13.75,15.32,22.16,3.66,8.42,5.49,17.57,5.49,27.46s-1.83,18.89-5.49,27.37c-3.66,8.48-8.77,15.9-15.32,22.26-6.55,6.36-14.33,11.27-23.32,14.74-8.99,3.47-18.82,5.2-29.49,5.2ZM935.08,424.8c7.07,0,13.52-1.12,19.37-3.37,5.84-2.25,10.92-5.46,15.22-9.64,4.3-4.17,7.64-9.02,10.02-14.55,2.38-5.52,3.57-11.56,3.57-18.12s-1.19-12.59-3.57-18.12c-2.38-5.52-5.72-10.37-10.02-14.55-4.31-4.17-9.38-7.39-15.22-9.64-5.85-2.25-12.3-3.37-19.37-3.37s-13.36,1.13-19.27,3.37c-5.91,2.25-11.02,5.46-15.32,9.64-4.31,4.18-7.61,9.03-9.92,14.55-2.31,5.53-3.47,11.56-3.47,18.12s1.16,12.59,3.47,18.12c2.31,5.53,5.62,10.38,9.92,14.55,4.3,4.18,9.41,7.39,15.32,9.64,5.91,2.25,12.34,3.37,19.27,3.37Z"/>
  <polyline class="cls-1" points="82.18 180.08 82.18 103.18 159.22 103.18"/>
</svg>